<svg width="32" height="31" viewBox="0 0 32 31" fill="none" xmlns="http://www.w3.org/2000/svg">
  <path d="M19.9994 1.62896L27.3761 14.3766C27.7784 15.0719 27.7784 15.9285 27.3761 16.6238L19.9994 29.3714C19.5971 30.0667 18.8535 30.495 18.0488 30.495H22.3717C23.1764 30.495 23.92 30.0667 24.3223 29.3714L31.699 16.6238C32.1013 15.9285 32.1013 15.0719 31.699 14.3766L24.3223 1.62896C23.92 0.93366 23.1763 0.505371 22.3717 0.505371H18.0488C18.8535 0.505371 19.5971 0.93366 19.9994 1.62896Z" fill="#39435A"/>
  <path d="M19.9994 1.62896L20.328 2.19697C20.8867 2.20512 21.467 2.25091 22.0592 2.33777C23.2377 2.51074 24.3241 2.826 25.2523 3.23638L24.3221 1.62896C23.92 0.93366 23.1764 0.505371 22.3717 0.505371H18.0488C18.8535 0.505371 19.5971 0.93366 19.9994 1.62896Z" fill="#2C374C"/>
  <path d="M11.6771 1.62896L19.0538 14.3766C19.4561 15.0719 19.4561 15.9285 19.0538 16.6238L11.6771 29.3714C11.2748 30.0667 10.5313 30.495 9.72656 30.495H14.0495C14.8542 30.495 15.5977 30.0667 16 29.3714L23.3767 16.6238C23.779 15.9285 23.779 15.0719 23.3767 14.3766L16 1.62896C15.5976 0.93366 14.8541 0.505371 14.0494 0.505371H9.72656C10.5312 0.505371 11.2747 0.93366 11.6771 1.62896Z" fill="#39435A"/>
  <path d="M12.0014 29.3712L4.62463 16.6235C4.22234 15.9282 4.22234 15.0717 4.62463 14.3764L12.0014 1.62871C12.4036 0.933416 13.1472 0.505127 13.9519 0.505127H9.62897C8.82427 0.505127 8.08073 0.933416 7.67844 1.62871L0.30172 14.3764C-0.100573 15.0717 -0.100573 15.9282 0.30172 16.6235L7.67844 29.3712C8.08073 30.0665 8.82427 30.4948 9.62897 30.4948H13.9519C13.1472 30.4948 12.4036 30.0665 12.0014 29.3712Z" fill="#435F94"/>
  <path d="M16.2632 29.3712L8.88648 16.6236C8.48418 15.9283 8.48418 15.0717 8.88648 14.3764L16.2632 1.62874C16.6655 0.93366 17.409 0.505371 18.2137 0.505371H13.8908C13.0861 0.505371 12.3426 0.93366 11.9403 1.62896L4.56356 14.3766C4.16127 15.0719 4.16127 15.9285 4.56356 16.6238L11.9403 29.3714C12.3426 30.0667 13.0861 30.495 13.8908 30.495H18.2137C17.409 30.4948 16.6655 30.0665 16.2632 29.3712Z" fill="#377DFF"/>
  <path d="M20.6068 29.3712L13.2301 16.6236C12.8278 15.9283 12.8278 15.0717 13.2301 14.3764L20.6068 1.62874C21.0091 0.93366 21.7527 0.505371 22.5574 0.505371H18.2344C17.4297 0.505371 16.6862 0.93366 16.2839 1.62896L8.90719 14.3766C8.5049 15.0719 8.5049 15.9285 8.90719 16.6238L16.2839 29.3714C16.6862 30.0667 17.4297 30.495 18.2344 30.495H22.5574C21.7527 30.4948 21.0091 30.0665 20.6068 29.3712Z" fill="#37DBFF"/>
</svg>
